<svg xmlns="http://www.w3.org/2000/svg" viewBox="0 0 512 512"><path d="M368.8 35.2c8.1 0 14.8 6.6 14.8 14.8v105.7c0 8.1-6.6 14.8-14.8 14.8-8.1 0-14.8-6.6-14.8-14.8V50c.1-8.2 6.7-14.8 14.8-14.8zM177.5 88.1h157v29.5h-157V88.1zm248 0h-22.4v29.5h22.4c12 0 21.8 9.8 21.8 21.8v62.7H64.7v-62.8c0-12 9.8-21.8 21.8-21.8h22.4V88H86.5c-28.3 0-51.3 22.9-51.3 51.2v286.3c0 28.3 22.9 51.2 51.2 51.2h339.1c28.3 0 51.2-22.9 51.2-51.2V139.3c.1-28.3-22.9-51.2-51.2-51.2zm21.8 337.5c0 12-9.8 21.8-21.8 21.8H86.4c-12 0-21.8-9.8-21.8-21.8V231.4h382.7v194.2zM143.1 35.2c8.1 0 14.8 6.6 14.8 14.8v105.7c0 8.1-6.6 14.8-14.8 14.8-8.1 0-14.8-6.6-14.8-14.8V50c.1-8.2 6.7-14.8 14.8-14.8zM214 399.4c5.7 5.7 15 5.7 20.7 0l98.8-97.6c5.7-5.8 5.7-15.1 0-20.8-5.8-5.7-15.1-5.7-20.8 0l-88.2 87.2-25.4-25.4c-5.8-5.7-15.1-5.7-20.8 0-5.7 5.8-5.7 15.1 0 20.8l35.7 35.8z"/></svg>