<?xml version="1.0" encoding="utf-8"?>
<!-- Generator: Adobe Illustrator 25.1.0, SVG Export Plug-In . SVG Version: 6.00 Build 0)  -->
<svg version="1.1" id="Layer_1" xmlns="http://www.w3.org/2000/svg" xmlns:xlink="http://www.w3.org/1999/xlink" x="0px" y="0px"
	 viewBox="0 0 512 512" style="enable-background:new 0 0 512 512;" xml:space="preserve">
<path d="M456,78.9l-33-33.1c-17.5-16.6-44.8-16.6-62.3,0L203.4,203c-2.5,2.5-4,5.6-4.7,9l-17.6,88c-1.2,5.8,0.6,11.8,4.7,16
	c3.4,3.2,7.8,5.2,12.5,5.2h3.5l88-17.6c3.4-0.7,6.5-2.4,9-4.7l157.3-157.3c17.1-17.2,17.1-45,0-62.3L456,78.9L456,78.9z
	 M277.7,269.7l-57,11.4l11.4-57L339,117.2l45.6,45.6L277.7,269.7z M431.1,116.2L409.5,138l-45.6-45.6l21.8-21.6
	c3.2-3.4,8.5-3.6,12-0.3l0.3,0.3l33,33c3.4,3.2,3.6,8.5,0.3,12C431.3,115.8,431.2,116,431.1,116.2z"/>
<path d="M365.5,461.8H101.6c-34,0-61.6-27.5-61.6-61.6V136.3c0-34,27.5-61.6,61.6-61.6h114.3c9.7,0,17.6,7.8,17.6,17.6
	s-7.8,17.6-17.6,17.6H101.6c-14.6,0-26.4,11.9-26.4,26.4v263.9c0,14.6,11.9,26.4,26.4,26.4h263.9c14.6,0,26.4-11.9,26.4-26.4V285.9
	c0-9.7,7.8-17.6,17.6-17.6c9.7,0,17.6,7.8,17.6,17.6v114.3C427,434.3,399.5,461.8,365.5,461.8L365.5,461.8z"/>
</svg>
