<svg xmlns="http://www.w3.org/2000/svg" viewBox="0 0 512 512"><path d="M274.3 347.4V182.8h-73.1v36.6h36.6v128h-54.9V384h146.3v-36.6h-54.9zM256 91.4c-15.1 0-27.4 12.3-27.4 27.4 0 15.1 12.2 27.4 27.4 27.4 15.1 0 27.4-12.3 27.4-27.4 0-15.1-12.2-27.4-27.4-27.4zm0 420.6C114.6 512 0 397.4 0 256S114.6 0 256 0s256 114.6 256 256c-.2 141.3-114.7 255.8-256 256zm0-475.4C134.8 36.6 36.6 134.8 36.6 256S134.8 475.4 256 475.4 475.4 377.2 475.4 256C475.3 134.9 377.1 36.7 256 36.6z" fill-rule="evenodd" clip-rule="evenodd"/></svg>