<svg xmlns="http://www.w3.org/2000/svg" viewBox="0 0 512 512"><path d="M145.3 413.4L6.3 271.7c-.4-.4-.7-.9-1.1-1.3-.5-.6-1.1-1.2-1.5-1.8l-.1-.2c-.4-.6-.7-1.3-1-1.9-.3-.7-.7-1.1-.9-1.8v-.2c-.3-.8-.5-1.5-.7-2.3-.1-.6-.4-1.1-.5-1.7v-.1c-.5-2.8-.5-5.7 0-8.5v-.1c.1-.6.3-1.1.5-1.7.2-.8.4-1.5.7-2.2v-.2c.3-.6.6-1.2 1-1.8.3-.6.6-1.3 1-1.9l.1-.2c.5-.7 1-1.3 1.5-1.9.4-.4.6-.9 1-1.3l139-142c8.6-8.9 22.8-9 31.6-.4 8.9 8.6 9 22.8.4 31.6l-.1.1L75.6 233.6H487c12.4 0 22.4 10 22.4 22.4 0 12.4-10 22.4-22.4 22.4H75.6l101.7 103.7c8.7 8.8 8.6 23-.2 31.6-8.8 8.7-23 8.6-31.6-.2-.1 0-.1-.1-.2-.1z"/></svg>