<?xml version="1.0" encoding="utf-8"?>
<!-- Generator: Adobe Illustrator 25.1.0, SVG Export Plug-In . SVG Version: 6.00 Build 0)  -->
<svg version="1.1" id="Layer_1" xmlns="http://www.w3.org/2000/svg" xmlns:xlink="http://www.w3.org/1999/xlink" x="0px" y="0px"
	 viewBox="0 0 512 512" style="enable-background:new 0 0 512 512;" xml:space="preserve">
<path d="M501.6,405.8L286.6,58c-7.1-17.3-27-25.6-44.4-18.4c-8.3,3.5-15,10.1-18.4,18.4L8.9,405.8c-23.2,37.6-6.4,67.8,37.7,67.8
	H464C507.9,473.6,524.8,443.3,501.6,405.8z M255.2,413.8c-11,0-20-9-20-20c0-11,9-20,20-20c11,0,20,9,20,20
	C275.1,404.9,266.2,413.8,255.2,413.8 M275.1,314.3c-0.4,11-9.6,19.7-20.6,19.2c-10.5-0.3-18.9-8.8-19.2-19.2V194.5
	c0.4-11,9.6-19.7,20.6-19.2c10.5,0.3,18.9,8.8,19.2,19.2V314.3L275.1,314.3z"/>
</svg>
